<svg xmlns="http://www.w3.org/2000/svg" viewBox="0 0 512 512" width="512" height="512">
  <rect width="512" height="512" rx="112" fill="#6366f1"/>
  <g fill="white">
    <!-- Book icon -->
    <path d="M150 130h212c11 0 20 9 20 20v236c0 11-9 20-20 20H150c-11 0-20-9-20-20V150c0-11 9-20 20-20z"/>
    <path d="M150 130v276c0 11-9 20-20 20s-20-9-20-20V150c0-11 9-20 20-20s20 9 20 20z" fill-opacity="0.5"/>
    <path d="M362 130v276c0 11 9 20 20 20s20-9 20-20V150c0-11-9-20-20-20s-20 9-20 20z" fill-opacity="0.5"/>
    <!-- Pages -->
    <rect x="166" y="168" width="180" height="10" rx="5" fill-opacity="0.9"/>
    <rect x="166" y="200" width="180" height="10" rx="5" fill-opacity="0.9"/>
    <rect x="166" y="232" width="140" height="10" rx="5" fill-opacity="0.9"/>
    <rect x="166" y="264" width="160" height="10" rx="5" fill-opacity="0.9"/>
    <rect x="166" y="296" width="120" height="10" rx="5" fill-opacity="0.9"/>
    <rect x="166" y="328" width="150" height="10" rx="5" fill-opacity="0.9"/>
  </g>
</svg>
